<svg height="512" viewBox="0 0 128 128" width="512" xmlns="http://www.w3.org/2000/svg"><g><path d="m106.455 4.557h-84.91a1.749 1.749 0 0 0 -1.75 1.75v115.386a1.749 1.749 0 0 0 1.75 1.75h84.91a1.749 1.749 0 0 0 1.75-1.75v-115.386a1.749 1.749 0 0 0 -1.75-1.75zm-1.75 115.386h-81.405v-111.886h81.41z"/><path d="m35.325 85.387h8.718a1.75 1.75 0 1 0 0-3.5h-8.718a1.75 1.75 0 0 0 0 3.5z"/><path d="m50.78 83.637a1.749 1.749 0 0 0 1.75 1.75h40.145a1.75 1.75 0 1 0 0-3.5h-40.145a1.75 1.75 0 0 0 -1.75 1.75z"/><path d="m35.325 96.768h8.718a1.75 1.75 0 1 0 0-3.5h-8.718a1.75 1.75 0 0 0 0 3.5z"/><path d="m92.675 93.268h-40.145a1.75 1.75 0 0 0 0 3.5h40.145a1.75 1.75 0 0 0 0-3.5z"/><path d="m35.325 108.148h8.718a1.75 1.75 0 1 0 0-3.5h-8.718a1.75 1.75 0 0 0 0 3.5z"/><path d="m92.675 104.648h-40.145a1.75 1.75 0 0 0 0 3.5h40.145a1.75 1.75 0 0 0 0-3.5z"/><path d="m44.2 29.622h4.576l1.633 4.317 5.371 14.2a1.75 1.75 0 0 0 1.637 1.131h13.4a1.75 1.75 0 0 0 1.646-1.154l5.141-14.2a1.75 1.75 0 0 0 -1.646-2.346h-22.7l-1.638-4.317a1.749 1.749 0 0 0 -1.637-1.131h-5.783a1.75 1.75 0 1 0 0 3.5zm29.261 5.448-3.873 10.7h-10.964l-4.047-10.7z"/><path d="m52.253 55.576a4.931 4.931 0 1 0 4.932-4.931 4.937 4.937 0 0 0 -4.932 4.931zm6.362 0a1.431 1.431 0 1 1 -1.43-1.431 1.432 1.432 0 0 1 1.43 1.431z"/><path d="m65.885 55.576a4.931 4.931 0 1 0 4.93-4.931 4.936 4.936 0 0 0 -4.93 4.931zm6.362 0a1.431 1.431 0 1 1 -1.432-1.431 1.434 1.434 0 0 1 1.432 1.431z"/><path d="m64 72.225a26.187 26.187 0 1 0 -9.411-50.631 1.75 1.75 0 1 0 1.258 3.266 22.682 22.682 0 1 1 -11.808 10.387 1.75 1.75 0 0 0 -3.078-1.667 26.195 26.195 0 0 0 23.039 38.645z"/></g></svg>