<svg height="512" viewBox="0 0 128 128" width="512" xmlns="http://www.w3.org/2000/svg"><g><path d="m21.545 6.306h84.909v115.387h-84.909z" fill="#e2e8ed"/><circle cx="64" cy="46.038" fill="#f9cc4e" r="24.437"/><g fill="#142850"><path d="m106.455 95.089a1.75 1.75 0 0 0 -1.75 1.75v4.5a1.75 1.75 0 0 0 3.5 0v-4.5a1.75 1.75 0 0 0 -1.75-1.75z"/><path d="m106.455 4.557h-84.91a1.749 1.749 0 0 0 -1.75 1.75v15.893a1.75 1.75 0 0 0 3.5 0v-14.143h81.41v80.125a1.75 1.75 0 0 0 3.5 0v-81.875a1.749 1.749 0 0 0 -1.75-1.75z"/><path d="m106.455 107.825a1.75 1.75 0 0 0 -1.75 1.75v10.368h-81.405v-90.071a1.75 1.75 0 0 0 -3.5 0v91.821a1.749 1.749 0 0 0 1.75 1.75h84.91a1.749 1.749 0 0 0 1.75-1.75v-12.118a1.75 1.75 0 0 0 -1.755-1.75z"/><path d="m33.575 83.637a1.749 1.749 0 0 0 1.75 1.75h8.718a1.75 1.75 0 1 0 0-3.5h-8.718a1.75 1.75 0 0 0 -1.75 1.75z"/><path d="m92.675 81.887h-40.145a1.75 1.75 0 0 0 0 3.5h40.145a1.75 1.75 0 1 0 0-3.5z"/><path d="m35.325 96.768h8.718a1.75 1.75 0 1 0 0-3.5h-8.718a1.75 1.75 0 0 0 0 3.5z"/><path d="m92.675 93.268h-40.145a1.75 1.75 0 0 0 0 3.5h40.145a1.75 1.75 0 0 0 0-3.5z"/><path d="m35.325 108.148h8.718a1.75 1.75 0 1 0 0-3.5h-8.718a1.75 1.75 0 0 0 0 3.5z"/><path d="m92.675 104.648h-40.145a1.75 1.75 0 0 0 0 3.5h40.145a1.75 1.75 0 0 0 0-3.5z"/><path d="m77.389 32.315a1.75 1.75 0 0 0 -1.433-.745h-22.7l-1.636-4.317a1.749 1.749 0 0 0 -1.637-1.131h-5.783a1.75 1.75 0 1 0 0 3.5h4.576l1.633 4.317 5.371 14.2a1.75 1.75 0 0 0 1.637 1.131h13.4a1.75 1.75 0 0 0 1.646-1.154l5.141-14.2a1.753 1.753 0 0 0 -.215-1.601zm-7.8 13.454h-10.965l-4.047-10.7h18.884z"/><path d="m52.253 55.576a4.931 4.931 0 1 0 4.932-4.931 4.937 4.937 0 0 0 -4.932 4.931zm6.362 0a1.431 1.431 0 1 1 -1.43-1.431 1.432 1.432 0 0 1 1.43 1.431z"/><path d="m65.885 55.576a4.931 4.931 0 1 0 4.93-4.931 4.936 4.936 0 0 0 -4.93 4.931zm6.362 0a1.431 1.431 0 1 1 -1.432-1.431 1.434 1.434 0 0 1 1.432 1.431z"/><path d="m40.961 33.58a26.154 26.154 0 1 0 13.628-11.986 1.75 1.75 0 1 0 1.258 3.266 22.682 22.682 0 1 1 -11.808 10.387 1.75 1.75 0 0 0 -3.078-1.667z"/></g></g></svg>