<svg id="Layer_1" height="512" viewBox="0 0 512 512" width="512" xmlns="http://www.w3.org/2000/svg" data-name="Layer 1"><path d="m422.908 446.05-7.582 13.134 7.582 13.133h15.166l7.583-13.133-7.583-13.134z"/><path d="m430.491 422.368a36.816 36.816 0 1 0 36.817 36.816 36.857 36.857 0 0 0 -36.817-36.816zm25.269 39.316-10.469 18.133a5 5 0 0 1 -4.331 2.5h-20.939a5 5 0 0 1 -4.33-2.5l-10.469-18.133a5 5 0 0 1 0-5l10.469-18.134a5 5 0 0 1 4.33-2.5h20.939a5 5 0 0 1 4.331 2.5l10.469 18.134a5 5 0 0 1 0 5z"/><path d="m462.751 239.77-45.434-8.439a5 5 0 0 1 -4-4l-8.439-45.434a5 5 0 0 1 1.381-4.449l24.488-24.487a55.291 55.291 0 1 0 60.95 60.937l-24.497 24.492a5 5 0 0 1 -4.449 1.38z"/><path d="m449.249 416.3v-144.307a65.6 65.6 0 0 1 -37.516-3.736v148.043a46.677 46.677 0 0 1 37.516 0z"/><path d="m130.405 287.188v44.5a52.26 52.26 0 0 0 104.519 0v-46.145l-6.744-3.706v17.286a4.993 4.993 0 0 1 -1.186 3.232 58.006 58.006 0 0 1 -88.5 0 4.993 4.993 0 0 1 -1.186-3.232v-15.4zm52.26 47.13a6.909 6.909 0 1 1 -6.909 6.909 6.916 6.916 0 0 1 6.909-6.909zm0 24.813a6.909 6.909 0 1 1 -6.909 6.908 6.916 6.916 0 0 1 6.909-6.908z"/><path d="m147.3 297.238a48.009 48.009 0 0 0 70.877 0v-26.229c-.867.515-1.736 1.027-2.629 1.5a66.665 66.665 0 0 1 -62.841 0c-1.865-1-3.658-2.1-5.407-3.257v4.81a4.967 4.967 0 0 1 0 2.888z"/><path d="m248.013 58.248a86 86 0 0 0 -22.485-21.123v3.348a59.572 59.572 0 0 1 -40.181 56.316 4.995 4.995 0 0 1 -3.174.026l-1.242-.4a59.411 59.411 0 0 1 -41.131-56.637v-2.633a86.108 86.108 0 0 0 -22.48 21.176 93.443 93.443 0 0 0 -17.91 51.088h166.519a93.143 93.143 0 0 0 -17.916-51.161z"/><path d="m93.817 132.624h177.7a6.608 6.608 0 1 0 0-13.215h-177.7a6.608 6.608 0 0 0 0 13.215z"/><path d="m183.636 86.773a49.569 49.569 0 0 0 31.892-46.3v-8.847a77.566 77.566 0 0 0 -12.528-4.526 5 5 0 0 1 -3.689-5.348l.6-5.749h-34.49l.6 5.749a5 5 0 0 1 -3.689 5.348 77.291 77.291 0 0 0 -12.532 4.532v8.146a49.433 49.433 0 0 0 33.836 46.995zm-10.679-52.673h21.526a5 5 0 0 1 0 10h-21.526a5 5 0 0 1 0-10zm0 19.846h21.526a5 5 0 0 1 0 10h-21.526a5 5 0 0 1 0-10z"/><path d="m245.45 189.042a5 5 0 0 1 4.939-4.226h3.311a7.416 7.416 0 0 0 3.827-13.772 4.56 4.56 0 0 1 -2.368-.317 4.893 4.893 0 0 1 -1.245-.747c-.072 0-.142-.011-.214-.011h-3.313a5 5 0 0 1 -5-5v-22.238c0-.036 0-.072 0-.107h-122.512v.107 22.238a5 5 0 0 1 -5 5h-3.315a7.424 7.424 0 1 0 0 14.847h3.313a5 5 0 0 1 4.939 4.226l5.227 33.341a56.777 56.777 0 0 0 112.184 0z"/><path d="m258.473 142.624h-3.086v.107 12.816a109.766 109.766 0 0 0 3.086-12.923z"/><path d="m112.431 160.114c.148-.018.292-.049.442-.064v-17.319c0-.036 0-.072 0-.107h-6.451a82.294 82.294 0 0 0 3.607 11.459z"/><path d="m295.19 308.943v187.057h49.834v-117.73a72.828 72.828 0 0 0 -49.834-69.327z"/><path d="m244.924 331.684a62.26 62.26 0 0 1 -124.519 0v-39.575a226.5 226.5 0 0 1 -40.265 14.1v189.791h48.16v-63.067a5 5 0 0 1 7.332-4.423 111.943 111.943 0 0 0 104.059.192 5 5 0 0 1 7.309 4.432v62.866h38.19v-189.789a209.892 209.892 0 0 1 -40.266-15.4z"/><path d="m138.3 440.915v55.085h98.7v-54.916a121.961 121.961 0 0 1 -98.7-.169z"/><path d="m20.306 378.27v117.73h49.834v-187.057a72.828 72.828 0 0 0 -49.834 69.327z"/></svg>